{
    "asset" : {
        "generator" : "Khronos glTF Blender I/O v1.1.46",
        "version" : "2.0"
    },
    "scene" : 0,
    "scenes" : [
        {
            "name" : "Scene",
            "nodes" : [
                0,
                1,
                2
            ]
        }
    ],
    "nodes" : [
        {
            "name" : "Light",
            "rotation" : [
                0.16907575726509094,
                0.7558803558349609,
                -0.27217137813568115,
                0.570947527885437
            ],
            "translation" : [
                4.076245307922363,
                5.903861999511719,
                -1.0054539442062378
            ]
        },
        {
            "name" : "Camera",
            "rotation" : [
                0.483536034822464,
                0.33687159419059753,
                -0.20870360732078552,
                0.7804827094078064
            ],
            "translation" : [
                7.358891487121582,
                4.958309173583984,
                6.925790786743164
            ]
        },
        {
            "mesh" : 0,
            "name" : "globeOBJ",
            "rotation" : [
                0.7071068286895752,
                0,
                0,
                0.7071067094802856
            ],
            "translation" : [
                -6,
                0,
                0
            ]
        }
    ],
    "materials" : [
        {
            "doubleSided" : true,
            "emissiveFactor" : [
                0,
                0,
                0
            ],
            "name" : "GLOBO___ESTRUTURA_DOURADA",
            "pbrMetallicRoughness" : {
                "baseColorTexture" : {
                    "index" : 0,
                    "texCoord" : 0
                },
                "metallicFactor" : 0,
                "roughnessFactor" : 1
            }
        },
        {
            "doubleSided" : true,
            "emissiveFactor" : [
                0,
                0,
                0
            ],
            "name" : "GLOBO___REGUA_LATERAL",
            "pbrMetallicRoughness" : {
                "baseColorTexture" : {
                    "index" : 1,
                    "texCoord" : 0
                },
                "metallicFactor" : 0,
                "roughnessFactor" : 1
            }
        }
    ],
    "meshes" : [
        {
            "name" : "globeOBJ",
            "primitives" : [
                {
                    "attributes" : {
                        "POSITION" : 0,
                        "NORMAL" : 1,
                        "TEXCOORD_0" : 2
                    },
                    "indices" : 3,
                    "material" : 0
                },
                {
                    "attributes" : {
                        "POSITION" : 4,
                        "NORMAL" : 5,
                        "TEXCOORD_0" : 6
                    },
                    "indices" : 7,
                    "material" : 1
                }
            ]
        }
    ],
    "textures" : [
        {
            "source" : 0
        },
        {
            "source" : 1
        }
    ],
    "images" : [
        {
            "bufferView" : 4,
            "mimeType" : "image/jpeg",
            "name" : "GLOBO___ESTRUTURA_DOURADA"
        },
        {
            "bufferView" : 9,
            "mimeType" : "image/jpeg",
            "name" : "GLOBO___REGUA_LATERAL"
        }
    ],
    "accessors" : [
        {
            "bufferView" : 0,
            "componentType" : 5126,
            "count" : 8443,
            "max" : [
                7.3021697998046875,
                0.10316599905490875,
                -5.78225982651964e-17
            ],
            "min" : [
                6.315939903259277,
                -0.5368340015411377,
                -1.5715999603271484
            ],
            "type" : "VEC3"
        },
        {
            "bufferView" : 1,
            "componentType" : 5126,
            "count" : 8443,
            "type" : "VEC3"
        },
        {
            "bufferView" : 2,
            "componentType" : 5126,
            "count" : 8443,
            "type" : "VEC2"
        },
        {
            "bufferView" : 3,
            "componentType" : 5123,
            "count" : 23406,
            "type" : "SCALAR"
        },
        {
            "bufferView" : 5,
            "componentType" : 5126,
            "count" : 5116,
            "max" : [
                7.3021697998046875,
                0.2731359899044037,
                -0.16130000352859497
            ],
            "min" : [
                6.077229976654053,
                -0.8392279744148254,
                -1.5114200115203857
            ],
            "type" : "VEC3"
        },
        {
            "bufferView" : 6,
            "componentType" : 5126,
            "count" : 5116,
            "type" : "VEC3"
        },
        {
            "bufferView" : 7,
            "componentType" : 5126,
            "count" : 5116,
            "type" : "VEC2"
        },
        {
            "bufferView" : 8,
            "componentType" : 5123,
            "count" : 30030,
            "type" : "SCALAR"
        }
    ],
    "bufferViews" : [
        {
            "buffer" : 0,
            "byteLength" : 101316,
            "byteOffset" : 0
        },
        {
            "buffer" : 0,
            "byteLength" : 101316,
            "byteOffset" : 101316
        },
        {
            "buffer" : 0,
            "byteLength" : 67544,
            "byteOffset" : 202632
        },
        {
            "buffer" : 0,
            "byteLength" : 46812,
            "byteOffset" : 270176
        },
        {
            "buffer" : 0,
            "byteLength" : 3300,
            "byteOffset" : 316988
        },
        {
            "buffer" : 0,
            "byteLength" : 61392,
            "byteOffset" : 320288
        },
        {
            "buffer" : 0,
            "byteLength" : 61392,
            "byteOffset" : 381680
        },
        {
            "buffer" : 0,
            "byteLength" : 40928,
            "byteOffset" : 443072
        },
        {
            "buffer" : 0,
            "byteLength" : 60060,
            "byteOffset" : 484000
        },
        {
            "buffer" : 0,
            "byteLength" : 60460,
            "byteOffset" : 544060
        }
    ],
    "buffers" : [
        {
            "byteLength" : 604520,
            "uri" : "data:application/octet-stream;base64,"
        }
    ]
}
